<mxfile host="app.diagrams.net" agent="Mozilla/5.0 (Windows NT 10.0; Win64; x64) AppleWebKit/537.36 (KHTML, like Gecko) Chrome/137.0.0.0 Safari/537.36" version="27.1.4" pages="2">
  <diagram name="로그인" id="N45buUCjUM3199n9V8Bg">
    <mxGraphModel dx="2066" dy="1145" grid="1" gridSize="10" guides="1" tooltips="1" connect="1" arrows="1" fold="1" page="1" pageScale="1" pageWidth="1169" pageHeight="827" math="0" shadow="0">
      <root>
        <mxCell id="0" />
        <mxCell id="1" parent="0" />
        <mxCell id="umpi64w4b_fbVe7aACRJ-24" value="" style="edgeStyle=orthogonalEdgeStyle;rounded=0;orthogonalLoop=1;jettySize=auto;html=1;" parent="1" source="X71dVZJyjM6vzLQV5i26-2" target="X71dVZJyjM6vzLQV5i26-11" edge="1">
          <mxGeometry relative="1" as="geometry" />
        </mxCell>
        <mxCell id="X71dVZJyjM6vzLQV5i26-2" value="로그인" style="rounded=1;whiteSpace=wrap;html=1;absoluteArcSize=1;arcSize=14;strokeWidth=2;" parent="1" vertex="1">
          <mxGeometry x="80" y="255" width="100" height="50" as="geometry" />
        </mxCell>
        <mxCell id="umpi64w4b_fbVe7aACRJ-20" value="" style="edgeStyle=orthogonalEdgeStyle;rounded=0;orthogonalLoop=1;jettySize=auto;html=1;" parent="1" source="X71dVZJyjM6vzLQV5i26-5" target="umpi64w4b_fbVe7aACRJ-19" edge="1">
          <mxGeometry relative="1" as="geometry" />
        </mxCell>
        <mxCell id="X71dVZJyjM6vzLQV5i26-5" value="회원 가입" style="rounded=1;whiteSpace=wrap;html=1;absoluteArcSize=1;arcSize=14;strokeWidth=2;" parent="1" vertex="1">
          <mxGeometry x="230" y="440" width="100" height="50" as="geometry" />
        </mxCell>
        <mxCell id="umpi64w4b_fbVe7aACRJ-3" style="edgeStyle=orthogonalEdgeStyle;rounded=0;orthogonalLoop=1;jettySize=auto;html=1;entryX=0;entryY=0.5;entryDx=0;entryDy=0;" parent="1" source="X71dVZJyjM6vzLQV5i26-11" target="umpi64w4b_fbVe7aACRJ-2" edge="1">
          <mxGeometry relative="1" as="geometry" />
        </mxCell>
        <mxCell id="umpi64w4b_fbVe7aACRJ-5" value="YES" style="edgeLabel;html=1;align=center;verticalAlign=middle;resizable=0;points=[];" parent="umpi64w4b_fbVe7aACRJ-3" vertex="1" connectable="0">
          <mxGeometry x="-0.013" y="2" relative="1" as="geometry">
            <mxPoint as="offset" />
          </mxGeometry>
        </mxCell>
        <mxCell id="X71dVZJyjM6vzLQV5i26-11" value="회원 여부&lt;div&gt;체크&lt;/div&gt;" style="strokeWidth=2;html=1;shape=mxgraph.flowchart.decision;whiteSpace=wrap;" parent="1" vertex="1">
          <mxGeometry x="231" y="230" width="100" height="100" as="geometry" />
        </mxCell>
        <mxCell id="X71dVZJyjM6vzLQV5i26-15" style="edgeStyle=orthogonalEdgeStyle;rounded=0;orthogonalLoop=1;jettySize=auto;html=1;entryX=0.516;entryY=-0.063;entryDx=0;entryDy=0;entryPerimeter=0;" parent="1" source="X71dVZJyjM6vzLQV5i26-11" target="X71dVZJyjM6vzLQV5i26-5" edge="1">
          <mxGeometry relative="1" as="geometry" />
        </mxCell>
        <mxCell id="X71dVZJyjM6vzLQV5i26-17" value="NO" style="edgeLabel;html=1;align=center;verticalAlign=middle;resizable=0;points=[];" parent="X71dVZJyjM6vzLQV5i26-15" vertex="1" connectable="0">
          <mxGeometry x="-0.3553" y="1" relative="1" as="geometry">
            <mxPoint x="-1" y="12" as="offset" />
          </mxGeometry>
        </mxCell>
        <mxCell id="umpi64w4b_fbVe7aACRJ-7" style="edgeStyle=orthogonalEdgeStyle;rounded=0;orthogonalLoop=1;jettySize=auto;html=1;entryX=0;entryY=0.5;entryDx=0;entryDy=0;" parent="1" source="umpi64w4b_fbVe7aACRJ-2" target="umpi64w4b_fbVe7aACRJ-6" edge="1">
          <mxGeometry relative="1" as="geometry" />
        </mxCell>
        <mxCell id="umpi64w4b_fbVe7aACRJ-2" value="ID/PW 입력" style="shape=parallelogram;perimeter=parallelogramPerimeter;whiteSpace=wrap;html=1;fixedSize=1;" parent="1" vertex="1">
          <mxGeometry x="440" y="250" width="120" height="60" as="geometry" />
        </mxCell>
        <mxCell id="umpi64w4b_fbVe7aACRJ-8" style="edgeStyle=orthogonalEdgeStyle;rounded=0;orthogonalLoop=1;jettySize=auto;html=1;entryX=0.5;entryY=0;entryDx=0;entryDy=0;" parent="1" source="umpi64w4b_fbVe7aACRJ-6" target="umpi64w4b_fbVe7aACRJ-2" edge="1">
          <mxGeometry relative="1" as="geometry">
            <mxPoint x="670" y="140" as="targetPoint" />
            <Array as="points">
              <mxPoint x="670" y="170" />
              <mxPoint x="500" y="170" />
            </Array>
          </mxGeometry>
        </mxCell>
        <mxCell id="umpi64w4b_fbVe7aACRJ-10" value="실패" style="edgeLabel;html=1;align=center;verticalAlign=middle;resizable=0;points=[];" parent="umpi64w4b_fbVe7aACRJ-8" vertex="1" connectable="0">
          <mxGeometry x="-0.0042" y="-2" relative="1" as="geometry">
            <mxPoint as="offset" />
          </mxGeometry>
        </mxCell>
        <mxCell id="umpi64w4b_fbVe7aACRJ-12" style="edgeStyle=orthogonalEdgeStyle;rounded=0;orthogonalLoop=1;jettySize=auto;html=1;entryX=0;entryY=0.5;entryDx=0;entryDy=0;" parent="1" source="umpi64w4b_fbVe7aACRJ-6" target="umpi64w4b_fbVe7aACRJ-11" edge="1">
          <mxGeometry relative="1" as="geometry" />
        </mxCell>
        <mxCell id="umpi64w4b_fbVe7aACRJ-6" value="ID/PW&lt;div&gt;검증&lt;/div&gt;" style="rhombus;whiteSpace=wrap;html=1;" parent="1" vertex="1">
          <mxGeometry x="630" y="240" width="80" height="80" as="geometry" />
        </mxCell>
        <mxCell id="umpi64w4b_fbVe7aACRJ-15" value="" style="edgeStyle=orthogonalEdgeStyle;rounded=0;orthogonalLoop=1;jettySize=auto;html=1;" parent="1" source="umpi64w4b_fbVe7aACRJ-11" target="umpi64w4b_fbVe7aACRJ-14" edge="1">
          <mxGeometry relative="1" as="geometry" />
        </mxCell>
        <mxCell id="umpi64w4b_fbVe7aACRJ-11" value="로그인 처리및&lt;div&gt;토큰 발급&lt;/div&gt;" style="rounded=1;whiteSpace=wrap;html=1;absoluteArcSize=1;arcSize=14;strokeWidth=2;" parent="1" vertex="1">
          <mxGeometry x="770" y="250" width="100" height="60" as="geometry" />
        </mxCell>
        <mxCell id="umpi64w4b_fbVe7aACRJ-14" value="메인화면으로 이동" style="whiteSpace=wrap;html=1;rounded=1;absoluteArcSize=1;arcSize=14;strokeWidth=2;" parent="1" vertex="1">
          <mxGeometry x="940" y="250" width="120" height="60" as="geometry" />
        </mxCell>
        <mxCell id="umpi64w4b_fbVe7aACRJ-21" style="edgeStyle=orthogonalEdgeStyle;rounded=0;orthogonalLoop=1;jettySize=auto;html=1;entryX=0.5;entryY=1;entryDx=0;entryDy=0;" parent="1" source="umpi64w4b_fbVe7aACRJ-19" target="X71dVZJyjM6vzLQV5i26-2" edge="1">
          <mxGeometry relative="1" as="geometry">
            <Array as="points">
              <mxPoint x="430" y="590" />
              <mxPoint x="130" y="590" />
            </Array>
          </mxGeometry>
        </mxCell>
        <mxCell id="umpi64w4b_fbVe7aACRJ-22" value="NO" style="edgeLabel;html=1;align=center;verticalAlign=middle;resizable=0;points=[];" parent="umpi64w4b_fbVe7aACRJ-21" vertex="1" connectable="0">
          <mxGeometry x="0.0794" y="1" relative="1" as="geometry">
            <mxPoint x="87" as="offset" />
          </mxGeometry>
        </mxCell>
        <mxCell id="umpi64w4b_fbVe7aACRJ-26" value="" style="edgeStyle=orthogonalEdgeStyle;rounded=0;orthogonalLoop=1;jettySize=auto;html=1;" parent="1" source="umpi64w4b_fbVe7aACRJ-19" target="umpi64w4b_fbVe7aACRJ-25" edge="1">
          <mxGeometry relative="1" as="geometry" />
        </mxCell>
        <mxCell id="umpi64w4b_fbVe7aACRJ-27" value="YES" style="edgeLabel;html=1;align=center;verticalAlign=middle;resizable=0;points=[];" parent="umpi64w4b_fbVe7aACRJ-26" vertex="1" connectable="0">
          <mxGeometry x="-0.1224" y="-1" relative="1" as="geometry">
            <mxPoint as="offset" />
          </mxGeometry>
        </mxCell>
        <mxCell id="umpi64w4b_fbVe7aACRJ-19" value="약관 체크" style="rhombus;whiteSpace=wrap;html=1;rounded=1;absoluteArcSize=1;arcSize=14;strokeWidth=2;" parent="1" vertex="1">
          <mxGeometry x="390" y="425" width="80" height="80" as="geometry" />
        </mxCell>
        <mxCell id="umpi64w4b_fbVe7aACRJ-29" value="" style="edgeStyle=orthogonalEdgeStyle;rounded=0;orthogonalLoop=1;jettySize=auto;html=1;" parent="1" source="umpi64w4b_fbVe7aACRJ-25" target="umpi64w4b_fbVe7aACRJ-28" edge="1">
          <mxGeometry relative="1" as="geometry" />
        </mxCell>
        <mxCell id="umpi64w4b_fbVe7aACRJ-25" value="ID/PW 입력" style="shape=parallelogram;perimeter=parallelogramPerimeter;whiteSpace=wrap;html=1;fixedSize=1;rounded=1;absoluteArcSize=1;arcSize=14;strokeWidth=2;" parent="1" vertex="1">
          <mxGeometry x="530" y="435" width="120" height="60" as="geometry" />
        </mxCell>
        <mxCell id="umpi64w4b_fbVe7aACRJ-30" style="edgeStyle=orthogonalEdgeStyle;rounded=0;orthogonalLoop=1;jettySize=auto;html=1;entryX=0.5;entryY=1;entryDx=0;entryDy=0;" parent="1" source="umpi64w4b_fbVe7aACRJ-28" target="umpi64w4b_fbVe7aACRJ-25" edge="1">
          <mxGeometry relative="1" as="geometry">
            <Array as="points">
              <mxPoint x="740" y="550" />
              <mxPoint x="590" y="550" />
            </Array>
          </mxGeometry>
        </mxCell>
        <mxCell id="umpi64w4b_fbVe7aACRJ-31" value="검사 실패" style="edgeLabel;html=1;align=center;verticalAlign=middle;resizable=0;points=[];" parent="umpi64w4b_fbVe7aACRJ-30" vertex="1" connectable="0">
          <mxGeometry x="-0.0008" y="2" relative="1" as="geometry">
            <mxPoint as="offset" />
          </mxGeometry>
        </mxCell>
        <mxCell id="umpi64w4b_fbVe7aACRJ-33" value="" style="edgeStyle=orthogonalEdgeStyle;rounded=0;orthogonalLoop=1;jettySize=auto;html=1;" parent="1" source="umpi64w4b_fbVe7aACRJ-28" target="umpi64w4b_fbVe7aACRJ-32" edge="1">
          <mxGeometry relative="1" as="geometry" />
        </mxCell>
        <mxCell id="umpi64w4b_fbVe7aACRJ-35" value="검사 통과" style="edgeLabel;html=1;align=center;verticalAlign=middle;resizable=0;points=[];" parent="umpi64w4b_fbVe7aACRJ-33" vertex="1" connectable="0">
          <mxGeometry x="-0.1952" y="1" relative="1" as="geometry">
            <mxPoint as="offset" />
          </mxGeometry>
        </mxCell>
        <mxCell id="umpi64w4b_fbVe7aACRJ-28" value="유효성 검사" style="rhombus;whiteSpace=wrap;html=1;rounded=1;absoluteArcSize=1;arcSize=14;strokeWidth=2;" parent="1" vertex="1">
          <mxGeometry x="700" y="425" width="80" height="80" as="geometry" />
        </mxCell>
        <mxCell id="umpi64w4b_fbVe7aACRJ-34" style="edgeStyle=orthogonalEdgeStyle;rounded=0;orthogonalLoop=1;jettySize=auto;html=1;entryX=0;entryY=0.5;entryDx=0;entryDy=0;" parent="1" source="umpi64w4b_fbVe7aACRJ-32" target="X71dVZJyjM6vzLQV5i26-2" edge="1">
          <mxGeometry relative="1" as="geometry">
            <Array as="points">
              <mxPoint x="930" y="690" />
              <mxPoint x="60" y="690" />
              <mxPoint x="60" y="280" />
            </Array>
          </mxGeometry>
        </mxCell>
        <mxCell id="umpi64w4b_fbVe7aACRJ-32" value="회원 가입 완료" style="rounded=1;whiteSpace=wrap;html=1;absoluteArcSize=1;arcSize=14;strokeWidth=2;" parent="1" vertex="1">
          <mxGeometry x="865" y="435" width="120" height="60" as="geometry" />
        </mxCell>
      </root>
    </mxGraphModel>
  </diagram>
  <diagram id="Qf9yfGpteWK4u3CwcMDb" name="메인화면">
    <mxGraphModel dx="1181" dy="654" grid="1" gridSize="10" guides="1" tooltips="1" connect="1" arrows="1" fold="1" page="1" pageScale="1" pageWidth="1169" pageHeight="827" math="0" shadow="0">
      <root>
        <mxCell id="0" />
        <mxCell id="1" parent="0" />
        <mxCell id="EyDdG86SqhML9K3ttTKM-3" value="" style="edgeStyle=orthogonalEdgeStyle;rounded=0;orthogonalLoop=1;jettySize=auto;html=1;" edge="1" parent="1" source="EyDdG86SqhML9K3ttTKM-1" target="EyDdG86SqhML9K3ttTKM-2">
          <mxGeometry relative="1" as="geometry" />
        </mxCell>
        <mxCell id="EyDdG86SqhML9K3ttTKM-1" value="메인화면 진입" style="rounded=1;whiteSpace=wrap;html=1;absoluteArcSize=1;arcSize=14;strokeWidth=2;" vertex="1" parent="1">
          <mxGeometry x="40" y="200" width="100" height="60" as="geometry" />
        </mxCell>
        <mxCell id="EyDdG86SqhML9K3ttTKM-5" value="" style="edgeStyle=orthogonalEdgeStyle;rounded=0;orthogonalLoop=1;jettySize=auto;html=1;" edge="1" parent="1" source="EyDdG86SqhML9K3ttTKM-2" target="EyDdG86SqhML9K3ttTKM-4">
          <mxGeometry relative="1" as="geometry" />
        </mxCell>
        <mxCell id="EyDdG86SqhML9K3ttTKM-7" value="" style="edgeStyle=orthogonalEdgeStyle;rounded=0;orthogonalLoop=1;jettySize=auto;html=1;entryX=0;entryY=0.5;entryDx=0;entryDy=0;" edge="1" parent="1" source="EyDdG86SqhML9K3ttTKM-2" target="EyDdG86SqhML9K3ttTKM-6">
          <mxGeometry relative="1" as="geometry">
            <Array as="points">
              <mxPoint x="370" y="230" />
              <mxPoint x="370" y="340" />
            </Array>
          </mxGeometry>
        </mxCell>
        <mxCell id="EyDdG86SqhML9K3ttTKM-21" value="" style="edgeStyle=orthogonalEdgeStyle;rounded=0;orthogonalLoop=1;jettySize=auto;html=1;entryX=0;entryY=0.5;entryDx=0;entryDy=0;" edge="1" parent="1" source="EyDdG86SqhML9K3ttTKM-2" target="EyDdG86SqhML9K3ttTKM-20">
          <mxGeometry relative="1" as="geometry">
            <Array as="points">
              <mxPoint x="370" y="230" />
              <mxPoint x="370" y="560" />
            </Array>
          </mxGeometry>
        </mxCell>
        <mxCell id="EyDdG86SqhML9K3ttTKM-23" style="edgeStyle=orthogonalEdgeStyle;rounded=0;orthogonalLoop=1;jettySize=auto;html=1;entryX=0;entryY=0.5;entryDx=0;entryDy=0;" edge="1" parent="1" source="EyDdG86SqhML9K3ttTKM-2" target="EyDdG86SqhML9K3ttTKM-22">
          <mxGeometry relative="1" as="geometry">
            <Array as="points">
              <mxPoint x="370" y="230" />
              <mxPoint x="370" y="450" />
            </Array>
          </mxGeometry>
        </mxCell>
        <mxCell id="EyDdG86SqhML9K3ttTKM-2" value="ToDo 리스트 표시" style="whiteSpace=wrap;html=1;rounded=1;absoluteArcSize=1;arcSize=14;strokeWidth=2;" vertex="1" parent="1">
          <mxGeometry x="220" y="200" width="120" height="60" as="geometry" />
        </mxCell>
        <mxCell id="EyDdG86SqhML9K3ttTKM-12" value="" style="edgeStyle=orthogonalEdgeStyle;rounded=0;orthogonalLoop=1;jettySize=auto;html=1;" edge="1" parent="1" source="EyDdG86SqhML9K3ttTKM-4" target="EyDdG86SqhML9K3ttTKM-11">
          <mxGeometry relative="1" as="geometry" />
        </mxCell>
        <mxCell id="EyDdG86SqhML9K3ttTKM-4" value="신규 ToDo 생성" style="whiteSpace=wrap;html=1;rounded=1;absoluteArcSize=1;arcSize=14;strokeWidth=2;" vertex="1" parent="1">
          <mxGeometry x="420" y="200" width="120" height="60" as="geometry" />
        </mxCell>
        <mxCell id="EyDdG86SqhML9K3ttTKM-6" value="ToDo 상세조회" style="whiteSpace=wrap;html=1;rounded=1;absoluteArcSize=1;arcSize=14;strokeWidth=2;" vertex="1" parent="1">
          <mxGeometry x="420" y="310" width="120" height="60" as="geometry" />
        </mxCell>
        <mxCell id="EyDdG86SqhML9K3ttTKM-14" value="" style="edgeStyle=orthogonalEdgeStyle;rounded=0;orthogonalLoop=1;jettySize=auto;html=1;" edge="1" parent="1" source="EyDdG86SqhML9K3ttTKM-11" target="EyDdG86SqhML9K3ttTKM-13">
          <mxGeometry relative="1" as="geometry" />
        </mxCell>
        <mxCell id="EyDdG86SqhML9K3ttTKM-11" value="ToDo&lt;div&gt;정보 입력&lt;/div&gt;" style="shape=parallelogram;perimeter=parallelogramPerimeter;whiteSpace=wrap;html=1;fixedSize=1;rounded=1;absoluteArcSize=1;arcSize=14;strokeWidth=2;" vertex="1" parent="1">
          <mxGeometry x="610" y="200" width="120" height="60" as="geometry" />
        </mxCell>
        <mxCell id="EyDdG86SqhML9K3ttTKM-18" value="" style="edgeStyle=orthogonalEdgeStyle;rounded=0;orthogonalLoop=1;jettySize=auto;html=1;" edge="1" parent="1" source="EyDdG86SqhML9K3ttTKM-13" target="EyDdG86SqhML9K3ttTKM-17">
          <mxGeometry relative="1" as="geometry" />
        </mxCell>
        <mxCell id="EyDdG86SqhML9K3ttTKM-19" value="성공" style="edgeLabel;html=1;align=center;verticalAlign=middle;resizable=0;points=[];" vertex="1" connectable="0" parent="EyDdG86SqhML9K3ttTKM-18">
          <mxGeometry x="-0.1175" relative="1" as="geometry">
            <mxPoint as="offset" />
          </mxGeometry>
        </mxCell>
        <mxCell id="EyDdG86SqhML9K3ttTKM-13" value="유효성&lt;div&gt;검사&lt;/div&gt;" style="rhombus;whiteSpace=wrap;html=1;rounded=1;absoluteArcSize=1;arcSize=14;strokeWidth=2;" vertex="1" parent="1">
          <mxGeometry x="770" y="190" width="80" height="80" as="geometry" />
        </mxCell>
        <mxCell id="EyDdG86SqhML9K3ttTKM-15" style="edgeStyle=orthogonalEdgeStyle;rounded=0;orthogonalLoop=1;jettySize=auto;html=1;entryX=0.582;entryY=0.02;entryDx=0;entryDy=0;entryPerimeter=0;" edge="1" parent="1" source="EyDdG86SqhML9K3ttTKM-13" target="EyDdG86SqhML9K3ttTKM-11">
          <mxGeometry relative="1" as="geometry">
            <Array as="points">
              <mxPoint x="820" y="140" />
              <mxPoint x="680" y="140" />
            </Array>
          </mxGeometry>
        </mxCell>
        <mxCell id="EyDdG86SqhML9K3ttTKM-16" value="실패" style="edgeLabel;html=1;align=center;verticalAlign=middle;resizable=0;points=[];" vertex="1" connectable="0" parent="EyDdG86SqhML9K3ttTKM-15">
          <mxGeometry x="-0.0855" y="-1" relative="1" as="geometry">
            <mxPoint x="-10" as="offset" />
          </mxGeometry>
        </mxCell>
        <mxCell id="EyDdG86SqhML9K3ttTKM-17" value="등록" style="whiteSpace=wrap;html=1;rounded=1;absoluteArcSize=1;arcSize=14;strokeWidth=2;" vertex="1" parent="1">
          <mxGeometry x="920" y="200" width="120" height="60" as="geometry" />
        </mxCell>
        <mxCell id="EyDdG86SqhML9K3ttTKM-34" value="" style="edgeStyle=orthogonalEdgeStyle;rounded=0;orthogonalLoop=1;jettySize=auto;html=1;" edge="1" parent="1" source="EyDdG86SqhML9K3ttTKM-20" target="EyDdG86SqhML9K3ttTKM-33">
          <mxGeometry relative="1" as="geometry" />
        </mxCell>
        <mxCell id="EyDdG86SqhML9K3ttTKM-20" value="ToDo 삭제" style="whiteSpace=wrap;html=1;rounded=1;absoluteArcSize=1;arcSize=14;strokeWidth=2;" vertex="1" parent="1">
          <mxGeometry x="420" y="530" width="120" height="60" as="geometry" />
        </mxCell>
        <mxCell id="EyDdG86SqhML9K3ttTKM-32" style="edgeStyle=orthogonalEdgeStyle;rounded=0;orthogonalLoop=1;jettySize=auto;html=1;" edge="1" parent="1" source="EyDdG86SqhML9K3ttTKM-22" target="EyDdG86SqhML9K3ttTKM-25">
          <mxGeometry relative="1" as="geometry" />
        </mxCell>
        <mxCell id="EyDdG86SqhML9K3ttTKM-22" value="ToDo 수정" style="whiteSpace=wrap;html=1;rounded=1;absoluteArcSize=1;arcSize=14;strokeWidth=2;" vertex="1" parent="1">
          <mxGeometry x="420" y="420" width="120" height="60" as="geometry" />
        </mxCell>
        <mxCell id="EyDdG86SqhML9K3ttTKM-24" value="" style="edgeStyle=orthogonalEdgeStyle;rounded=0;orthogonalLoop=1;jettySize=auto;html=1;" edge="1" parent="1" source="EyDdG86SqhML9K3ttTKM-25" target="EyDdG86SqhML9K3ttTKM-28">
          <mxGeometry relative="1" as="geometry" />
        </mxCell>
        <mxCell id="EyDdG86SqhML9K3ttTKM-25" value="ToDo&lt;div&gt;수정 정보 입력&lt;/div&gt;" style="shape=parallelogram;perimeter=parallelogramPerimeter;whiteSpace=wrap;html=1;fixedSize=1;rounded=1;absoluteArcSize=1;arcSize=14;strokeWidth=2;" vertex="1" parent="1">
          <mxGeometry x="610" y="420" width="120" height="60" as="geometry" />
        </mxCell>
        <mxCell id="EyDdG86SqhML9K3ttTKM-26" value="" style="edgeStyle=orthogonalEdgeStyle;rounded=0;orthogonalLoop=1;jettySize=auto;html=1;" edge="1" parent="1" source="EyDdG86SqhML9K3ttTKM-28" target="EyDdG86SqhML9K3ttTKM-31">
          <mxGeometry relative="1" as="geometry" />
        </mxCell>
        <mxCell id="EyDdG86SqhML9K3ttTKM-27" value="성공" style="edgeLabel;html=1;align=center;verticalAlign=middle;resizable=0;points=[];" vertex="1" connectable="0" parent="EyDdG86SqhML9K3ttTKM-26">
          <mxGeometry x="-0.1175" relative="1" as="geometry">
            <mxPoint as="offset" />
          </mxGeometry>
        </mxCell>
        <mxCell id="EyDdG86SqhML9K3ttTKM-28" value="유효성&lt;div&gt;검사&lt;/div&gt;" style="rhombus;whiteSpace=wrap;html=1;rounded=1;absoluteArcSize=1;arcSize=14;strokeWidth=2;" vertex="1" parent="1">
          <mxGeometry x="770" y="410" width="80" height="80" as="geometry" />
        </mxCell>
        <mxCell id="EyDdG86SqhML9K3ttTKM-29" style="edgeStyle=orthogonalEdgeStyle;rounded=0;orthogonalLoop=1;jettySize=auto;html=1;entryX=0.582;entryY=0.02;entryDx=0;entryDy=0;entryPerimeter=0;" edge="1" parent="1" source="EyDdG86SqhML9K3ttTKM-28" target="EyDdG86SqhML9K3ttTKM-25">
          <mxGeometry relative="1" as="geometry">
            <Array as="points">
              <mxPoint x="820" y="360" />
              <mxPoint x="680" y="360" />
            </Array>
          </mxGeometry>
        </mxCell>
        <mxCell id="EyDdG86SqhML9K3ttTKM-30" value="실패" style="edgeLabel;html=1;align=center;verticalAlign=middle;resizable=0;points=[];" vertex="1" connectable="0" parent="EyDdG86SqhML9K3ttTKM-29">
          <mxGeometry x="-0.0855" y="-1" relative="1" as="geometry">
            <mxPoint x="-10" as="offset" />
          </mxGeometry>
        </mxCell>
        <mxCell id="EyDdG86SqhML9K3ttTKM-31" value="등록" style="whiteSpace=wrap;html=1;rounded=1;absoluteArcSize=1;arcSize=14;strokeWidth=2;" vertex="1" parent="1">
          <mxGeometry x="920" y="420" width="120" height="60" as="geometry" />
        </mxCell>
        <mxCell id="EyDdG86SqhML9K3ttTKM-36" value="" style="edgeStyle=orthogonalEdgeStyle;rounded=0;orthogonalLoop=1;jettySize=auto;html=1;" edge="1" parent="1" source="EyDdG86SqhML9K3ttTKM-33" target="EyDdG86SqhML9K3ttTKM-35">
          <mxGeometry relative="1" as="geometry" />
        </mxCell>
        <mxCell id="EyDdG86SqhML9K3ttTKM-39" value="YES" style="edgeLabel;html=1;align=center;verticalAlign=middle;resizable=0;points=[];" vertex="1" connectable="0" parent="EyDdG86SqhML9K3ttTKM-36">
          <mxGeometry x="-0.0524" relative="1" as="geometry">
            <mxPoint as="offset" />
          </mxGeometry>
        </mxCell>
        <mxCell id="EyDdG86SqhML9K3ttTKM-37" style="edgeStyle=orthogonalEdgeStyle;rounded=0;orthogonalLoop=1;jettySize=auto;html=1;entryX=0.5;entryY=1;entryDx=0;entryDy=0;" edge="1" parent="1" source="EyDdG86SqhML9K3ttTKM-33" target="EyDdG86SqhML9K3ttTKM-2">
          <mxGeometry relative="1" as="geometry">
            <Array as="points">
              <mxPoint x="650" y="670" />
              <mxPoint x="280" y="670" />
            </Array>
          </mxGeometry>
        </mxCell>
        <mxCell id="EyDdG86SqhML9K3ttTKM-40" value="NO" style="edgeLabel;html=1;align=center;verticalAlign=middle;resizable=0;points=[];" vertex="1" connectable="0" parent="EyDdG86SqhML9K3ttTKM-37">
          <mxGeometry x="-0.4046" y="2" relative="1" as="geometry">
            <mxPoint as="offset" />
          </mxGeometry>
        </mxCell>
        <mxCell id="EyDdG86SqhML9K3ttTKM-33" value="이중 확인" style="rhombus;whiteSpace=wrap;html=1;rounded=1;absoluteArcSize=1;arcSize=14;strokeWidth=2;" vertex="1" parent="1">
          <mxGeometry x="610" y="520" width="80" height="80" as="geometry" />
        </mxCell>
        <mxCell id="EyDdG86SqhML9K3ttTKM-35" value="ToDo 삭제" style="rounded=1;whiteSpace=wrap;html=1;absoluteArcSize=1;arcSize=14;strokeWidth=2;" vertex="1" parent="1">
          <mxGeometry x="750" y="530" width="120" height="60" as="geometry" />
        </mxCell>
      </root>
    </mxGraphModel>
  </diagram>
</mxfile>
